<?xml version="1.0" standalone="no"?>
<!DOCTYPE svg PUBLIC "-//W3C//DTD SVG 20010904//EN"
 "http://www.w3.org/TR/2001/REC-SVG-20010904/DTD/svg10.dtd">
<svg version="1.0" xmlns="http://www.w3.org/2000/svg"
 width="500.000000pt" height="500.000000pt" viewBox="0 0 500.000000 500.000000"
 preserveAspectRatio="xMidYMid meet">
<metadata>
Created by potrace 1.14, written by Peter Selinger 2001-2017
</metadata>
<g transform="translate(0.000000,500.000000) scale(0.100000,-0.100000)"
fill="#000000" stroke="none">
<path d="M2458 3914 c-2 -1 -34 -5 -73 -9 -98 -9 -197 -32 -290 -68 -83 -31
-198 -89 -226 -113 -8 -8 -21 -14 -27 -14 -6 0 -15 -6 -19 -12 -4 -7 -24 -24
-43 -38 -68 -47 -148 -126 -230 -227 -75 -91 -179 -302 -206 -415 -2 -10 -7
-28 -10 -40 -4 -13 -8 -36 -10 -53 -1 -16 -3 -30 -4 -30 -14 0 -21 -293 -9
-360 5 -27 11 -61 13 -75 4 -32 24 -106 37 -145 59 -167 122 -279 230 -408
l76 -92 -97 -46 c-54 -26 -100 -52 -104 -58 -11 -17 6 -13 70 15 33 14 68 28
78 30 10 2 34 8 53 15 27 8 38 8 52 -3 10 -7 52 -38 95 -68 70 -49 98 -81 61
-66 -8 3 -15 1 -15 -4 0 -4 -13 -11 -30 -15 -32 -7 -41 -25 -12 -25 9 1 42 7
72 14 51 12 58 12 100 -9 51 -24 142 -60 192 -75 58 -16 122 -32 158 -37 57
-9 310 -9 370 0 95 14 239 60 336 106 55 27 121 51 146 55 43 7 70 11 114 20
49 10 208 68 266 97 72 36 165 98 190 126 27 29 7 47 -22 20 -32 -29 -109 -76
-185 -111 -77 -36 -206 -78 -222 -71 -7 2 -13 0 -13 -6 0 -6 -6 -9 -14 -6 -8
3 -17 3 -20 -1 -4 -3 -16 -7 -28 -9 -15 -2 -9 6 23 31 85 64 190 178 256 276
81 121 176 341 156 361 -6 6 -37 11 -69 11 -153 1 -234 -36 -370 -167 -164
-159 -290 -205 -403 -148 -62 30 -83 60 -49 67 13 2 61 12 108 21 119 22 210
51 233 74 6 6 19 11 28 11 9 0 22 7 29 15 7 8 18 15 25 15 29 0 181 129 240
203 22 28 42 41 73 48 45 10 73 32 95 76 54 104 -52 224 -168 192 -41 -12 -95
-71 -96 -107 -1 -15 -2 -34 -3 -42 -3 -25 21 -66 54 -94 l31 -26 -21 -30 c-32
-44 -128 -122 -212 -172 -70 -40 -197 -95 -235 -101 -10 -1 -24 -6 -31 -11 -7
-4 -16 -6 -19 -3 -3 3 -15 2 -27 -3 -13 -4 -48 -11 -79 -14 -51 -6 -57 -4 -57
12 0 23 43 72 65 73 8 1 25 2 38 3 26 3 59 -12 70 -30 11 -19 37 -18 37 1 0
22 -59 84 -100 105 -20 10 -73 23 -117 27 -117 13 -225 -11 -304 -68 l-30 -21
-34 26 c-207 158 -316 413 -283 661 10 72 47 192 65 206 9 8 28 -6 74 -56 100
-106 176 -140 241 -105 32 17 34 17 82 -8 63 -33 138 -33 195 0 38 22 40 22
59 5 34 -31 119 -55 180 -51 76 5 117 20 158 56 89 78 128 210 104 348 -15 85
-13 80 -33 119 -9 19 -17 38 -17 42 0 5 -15 33 -34 62 -107 167 -317 287 -550
313 -63 7 -174 12 -178 8z m212 -39 c127 -18 283 -86 368 -160 70 -61 91 -90
114 -159 41 -128 22 -240 -52 -313 -55 -54 -180 -57 -239 -7 -35 29 -39 30
-68 3 -33 -32 -88 -32 -142 -2 -42 25 -44 25 -76 8 -50 -27 -80 -14 -170 77
-44 45 -96 91 -115 104 -129 86 -360 93 -518 17 -31 -16 -63 -34 -70 -40 -7
-7 -17 -13 -22 -13 -4 0 -39 -31 -78 -69 -49 -49 -79 -90 -105 -143 -43 -88
-83 -213 -92 -288 -4 -30 -9 -59 -12 -63 -7 -12 -5 -193 2 -253 4 -27 13 -75
20 -106 7 -32 12 -58 9 -58 -2 0 5 -20 16 -45 11 -25 17 -45 15 -45 -2 0 3
-16 11 -36 14 -33 14 -37 -8 -59 l-23 -23 -23 56 c-23 59 -49 144 -58 197 -3
17 -9 48 -13 70 -21 114 -5 383 28 468 6 15 8 27 5 27 -3 0 -2 6 3 13 4 6 9
19 10 28 6 42 81 199 129 271 124 185 271 322 449 416 57 30 205 92 205 86 0
-2 11 1 26 6 26 10 36 12 159 34 75 13 226 14 315 1z m-675 -555 c69 -28 112
-51 140 -74 l30 -24 -21 -43 c-70 -147 -85 -310 -44 -472 40 -153 114 -267
259 -401 l43 -38 -33 -34 -32 -34 -161 3 c-89 2 -196 -2 -238 -8 -76 -10 -78
-10 -72 10 3 11 17 31 30 45 32 32 104 33 138 1 52 -49 58 -6 7 51 -23 27 -71
54 -123 71 -31 10 -76 112 -110 242 -20 83 -29 236 -16 290 18 76 19 115 3
115 -8 0 -15 -1 -15 -3 0 -2 -5 -30 -11 -63 -23 -119 -14 -278 20 -389 13 -44
39 -105 62 -147 l19 -37 -63 1 c-101 0 -195 -28 -265 -80 -18 -14 -35 -22 -39
-18 -17 17 -62 174 -78 271 -7 47 -8 222 -1 280 17 144 101 372 152 416 33 28
88 58 117 63 l27 5 -38 -47 c-48 -59 -85 -137 -113 -238 -22 -81 -25 -95 -34
-174 -5 -46 -6 -199 -2 -235 4 -26 16 -47 25 -41 4 2 7 60 6 128 -1 139 6 200
37 323 18 70 86 198 135 254 l48 54 90 -5 c50 -3 105 -11 121 -18z m287 -1178
c9 -9 8 -12 -4 -12 -9 0 -39 -14 -66 -30 -96 -60 -191 -72 -267 -32 -42 21
-81 60 -71 70 22 21 387 25 408 4z"/>
<path d="M3237 2964 c-53 -28 -64 -95 -22 -134 43 -40 112 -25 135 30 21 50
-5 93 -70 113 -9 3 -28 -2 -43 -9z"/>
<path d="M3144 2649 c-23 -8 -54 -46 -54 -65 0 -21 48 -71 67 -69 39 3 62 17
71 43 19 56 -31 111 -84 91z"/>
</g>
</svg>
